<!DOCTYPE svg PUBLIC "-//W3C//DTD SVG 1.1//EN" "http://www.w3.org/Graphics/SVG/1.1/DTD/svg11.dtd">
<!-- Uploaded to: SVG Repo, www.svgrepo.com, Transformed by: SVG Repo Mixer Tools -->
<svg fill="#e3e3e3" height="800px" width="800px" version="1.1" xmlns="http://www.w3.org/2000/svg" xmlns:xlink="http://www.w3.org/1999/xlink" viewBox="0 0 24 24" enable-background="new 0 0 24 24" xml:space="preserve" stroke="#e3e3e3" stroke-width="0.00024000000000000003">
<g id="SVGRepo_bgCarrier" stroke-width="0"/>
<g id="SVGRepo_tracerCarrier" stroke-linecap="round" stroke-linejoin="round"/>
<g id="SVGRepo_iconCarrier"> <g id="task"> <path d="M4,23.4l-3.7-3.7l1.4-1.4L4,20.6l4.3-4.3l1.4,1.4L4,23.4z M24,21H12v-2h12V21z M4,15.4l-3.7-3.7l1.4-1.4L4,12.6l4.3-4.3 l1.4,1.4L4,15.4z M24,13H12v-2h12V13z M4,7.4L0.3,3.7l1.4-1.4L4,4.6l4.3-4.3l1.4,1.4L4,7.4z M24,5H12V3h12V5z"/> </g> </g>
</svg>